# xmcd
#
# Track frame offsets:
#	150
#	17535
#	34004
#	55329
#	79277
#	92990
#	102781
#	125163
#	148093
#	164297
#	184520
#	199399
#
# Disc length: 2962 seconds
#
# Revision: 1
# Processed by: cddbd v1.5.2PL0 Copyright (c) Steve Scherf et al.
# Submitted via: audiograbber 1.83.01
#
DISCID=a50b900c
DTITLE=Repentance - A Change Is Coming
DYEAR=1999
DGENRE=
TTITLE0=A Change Is Coming
TTITLE1=Knowing That You´re There
TTITLE2=A New Life Awaiting
TTITLE3=The Battle
TTITLE4=Colours
TTITLE5=Thanks
TTITLE6=Ember In The Flame
TTITLE7=With Love And Grace
TTITLE8=Even After The End
TTITLE9=The Bethle Stone
TTITLE10=Set Sail For Heaven
TTITLE11=Let The Spirit Flow
EXTD=
EXTT0=
EXTT1=
EXTT2=
EXTT3=
EXTT4=
EXTT5=
EXTT6=
EXTT7=
EXTT8=
EXTT9=
EXTT10=
EXTT11=
PLAYORDER=
